# xmcd
#
# Track frame offsets: 
#        150
#        13480
#        28237
#        44480
#        59780
#        75172
#        90787
#        106057
#        120652
#        134690
#        150192
#        164365
#        180970
#        197165
#        213587
#        229487
#        243545
#        259245
#        274365
#        290430
#
# Disc length: 4134 seconds
#
# Revision: 0
# Processed by: cddbd v1.5.2PL0 Copyright (c) Steve Scherf et al.
# Submitted via: ExactAudioCopyFreeDBPlugin 1.0
#
DISCID=20102414
DTITLE=水前寺清子 - 水前寺清子_ ゴールデン☆ベスト 
DYEAR=2004
DGENRE=演歌
TTITLE0=三百六十五歩のマーチ
TTITLE1=いっぽんどっこの唄
TTITLE2=涙を抱いた渡り鳥
TTITLE3=花の都の渡り鳥
TTITLE4=女ごころの流し唄
TTITLE5=ゆさぶりどっこの唄
TTITLE6=その一言を待ってます
TTITLE7=俺は天下のご意見番
TTITLE8=どうどうどっこの唄
TTITLE9=いつでも君は
TTITLE10=みそこなっちゃいけないよ
TTITLE11=おしてもだめならひいてみな
TTITLE12=神様の恋人
TTITLE13=ひとりでよいしょ
TTITLE14=真実一路のマーチ
TTITLE15=東京でだめなら
TTITLE16=1+1の音頭
TTITLE17=ありがとうの歌
TTITLE18=だめでもともと
TTITLE19=大勝負
EXTD=
EXTT0=
EXTT1=
EXTT2=
EXTT3=
EXTT4=
EXTT5=
EXTT6=
EXTT7=
EXTT8=
EXTT9=
EXTT10=
EXTT11=
EXTT12=
EXTT13=
EXTT14=
EXTT15=
EXTT16=
EXTT17=
EXTT18=
EXTT19=
PLAYORDER=
